<?xml version="1.0" encoding="iso-8859-1"?>
<!-- Generator: Adobe Illustrator 16.0.0, SVG Export Plug-In . SVG Version: 6.00 Build 0)  -->
<!DOCTYPE svg PUBLIC "-//W3C//DTD SVG 1.1//EN" "http://www.w3.org/Graphics/SVG/1.1/DTD/svg11.dtd">
<svg version="1.1" id="Capa_1" xmlns="http://www.w3.org/2000/svg" xmlns:xlink="http://www.w3.org/1999/xlink" x="0px" y="0px"
	 width="27.02px" height="27.019px" viewBox="0 0 27.02 27.019" style="enable-background:new 0 0 27.02 27.019;"
	 xml:space="preserve">
<g>
	<path d="M26.968,7.91c-0.79-7.657-9.339-7.539-13.458-3.843C9.391,0.371,0.846,0.252,0.052,7.91
		C-0.97,17.768,13.51,25.406,13.51,25.406S27.989,17.768,26.968,7.91z M10.606,17.273H8.585v-6.472h2.021V17.273z M9.543,9.991H9.53
		c-0.732,0-1.207-0.495-1.207-1.122c0-0.639,0.489-1.123,1.235-1.123s1.205,0.484,1.22,1.123C10.778,9.494,10.304,9.991,9.543,9.991
		z M18.696,17.273h-2.293v-3.349c0-0.877-0.357-1.476-1.146-1.476c-0.604,0-0.938,0.404-1.096,0.793
		c-0.059,0.141-0.05,0.334-0.05,0.528v3.502h-2.271c0,0,0.028-5.933,0-6.472h2.271v1.016c0.135-0.443,0.861-1.077,2.02-1.077
		c1.436,0,2.565,0.932,2.565,2.936V17.273z"/>
</g>
<g>
</g>
<g>
</g>
<g>
</g>
<g>
</g>
<g>
</g>
<g>
</g>
<g>
</g>
<g>
</g>
<g>
</g>
<g>
</g>
<g>
</g>
<g>
</g>
<g>
</g>
<g>
</g>
<g>
</g>
</svg>
